<svg xmlns="http://www.w3.org/2000/svg" width="236" height="71" viewBox="0 0 236 71">
  <g id="Group_231" data-name="Group 231" transform="translate(-523 -711)">
    <rect id="Rectangle_269" data-name="Rectangle 269" width="236" height="71" rx="35.5" transform="translate(523 711)" fill="#3d3f75"/>
    <circle id="Ellipse_40" data-name="Ellipse 40" cx="26.5" cy="26.5" r="26.5" transform="translate(614 720)" fill="#efe8f2"/>
    <circle id="Ellipse_41" data-name="Ellipse 41" cx="26.5" cy="26.5" r="26.5" transform="translate(694 720)" fill="#efe8f2"/>
    <circle id="Ellipse_42" data-name="Ellipse 42" cx="26.5" cy="26.5" r="26.5" transform="translate(534 720)" fill="#efe8f2"/>
    <path id="Icon_awesome-microphone" data-name="Icon awesome-microphone" d="M9.83,19.661A5.362,5.362,0,0,0,15.193,14.3V5.362a5.362,5.362,0,0,0-10.724,0V14.3A5.362,5.362,0,0,0,9.83,19.661Zm8.937-8.937h-.894a.893.893,0,0,0-.894.894V14.3a7.158,7.158,0,0,1-7.864,7.115A7.367,7.367,0,0,1,2.681,13.98V11.618a.893.893,0,0,0-.894-.894H.894A.893.893,0,0,0,0,11.618v2.243A10.138,10.138,0,0,0,8.49,24.009v1.907H5.362a.893.893,0,0,0-.894.894V27.7a.893.893,0,0,0,.894.894H14.3a.893.893,0,0,0,.894-.894V26.81a.893.893,0,0,0-.894-.894H11.171V24.03a9.84,9.84,0,0,0,8.49-9.732V11.618A.893.893,0,0,0,18.767,10.724Z" transform="translate(630.169 732.201)" fill="#141740"/>
    <g id="Group_88" data-name="Group 88" transform="translate(0 1)">
      <g id="Path_340" data-name="Path 340" transform="translate(546.699 731.201)" fill="none" stroke-linecap="round">
        <path d="M13.8,0A13.8,13.8,0,1,1,7.141,25.872c-.59-.311-5.211,3.246-5.948,2.661-.627-.5,2.636-5.127,1.945-5.936A13.655,13.655,0,0,1,0,13.8,13.8,13.8,0,0,1,13.8,0Z" stroke="none"/>
        <path d="M 13.80061912536621 2.000001907348633 C 10.6485595703125 2.000001907348633 7.685169219970703 3.227481842041016 5.456319808959961 5.456321716308594 C 3.227479934692383 7.685171127319336 2 10.6485710144043 2 13.8006420135498 C 2 16.60149192810059 2.967338562011719 19.33208084106445 4.65397834777832 21.29227066040039 L 4.657819747924805 21.29675102233887 C 5.452669143676758 22.22605133056641 5.337711334228516 23.34690284729004 4.864162445068359 24.61631393432617 C 5.808256149291992 24.09190940856934 6.40684700012207 23.85246276855469 7.046249389648438 23.85246276855469 C 7.413639068603516 23.85246276855469 7.759588241577148 23.93668174743652 8.074489593505859 24.10278129577637 L 8.081628799438477 24.1065616607666 C 9.969949722290039 25.11235046386719 11.84064865112305 25.60127258300781 13.80061912536621 25.60127258300781 C 16.95267868041992 25.60127258300781 19.91606903076172 24.3737907409668 22.14491844177246 22.14495086669922 C 24.37375831604004 19.91610145568848 25.60123825073242 16.95270156860352 25.60123825073242 13.8006420135498 C 25.60123825073242 10.6485710144043 24.37375831604004 7.685171127319336 22.14491844177246 5.456321716308594 C 19.91606903076172 3.227481842041016 16.95267868041992 2.000001907348633 13.80061912536621 2.000001907348633 M 13.80061912536621 1.9073486328125e-06 C 21.42248916625977 1.9073486328125e-06 27.60123825073242 6.178750991821289 27.60123825073242 13.8006420135498 C 27.60123825073242 21.42252159118652 21.42248916625977 27.60127258300781 13.80061912536621 27.60127258300781 C 11.50071907043457 27.60127258300781 9.332220077514648 27.03868103027344 7.141408920288086 25.87178230285645 C 6.596691131591797 25.58444976806641 2.612644195556641 28.5976505279541 1.426504135131836 28.5976505279541 C 1.328449249267578 28.5976505279541 1.249599456787109 28.57708549499512 1.193309783935547 28.53235244750977 C 0.5667991638183594 28.03570175170898 3.829179763793945 23.4049015045166 3.137939453125 22.59674072265625 C 1.278169631958008 20.43534088134766 0 17.26726150512695 0 13.8006420135498 C 0 6.178750991821289 6.178749084472656 1.9073486328125e-06 13.80061912536621 1.9073486328125e-06 Z" stroke="none" fill="#012f61"/>
      </g>
      <path id="Rectangle_723" data-name="Rectangle 723" d="M1,0H2.154a1,1,0,0,1,1,1V16.561a0,0,0,0,1,0,0H0a0,0,0,0,1,0,0V1A1,1,0,0,1,1,0Z" transform="matrix(0.819, 0.574, -0.574, 0.819, 565.873, 739.877)" fill="#141740"/>
      <g id="Group_87" data-name="Group 87" transform="translate(551.203 738.231) rotate(-13)">
        <line id="Line_7" data-name="Line 7" y1="5.52" transform="translate(11.041 0)" fill="none" stroke="#012f61" stroke-linecap="round" stroke-width="1"/>
        <line id="Line_8" data-name="Line 8" x1="3.943" y1="4.732" transform="translate(3.943 1.577)" fill="none" stroke="#012f61" stroke-linecap="round" stroke-width="1"/>
        <line id="Line_9" data-name="Line 9" x1="6.309" y1="0.789" transform="translate(0 7.886)" fill="none" stroke="#012f61" stroke-linecap="round" stroke-width="1"/>
      </g>
    </g>
    <path id="Icon_material-person" data-name="Icon material-person" d="M14.521,14.521a4.26,4.26,0,1,0-4.26-4.26A4.259,4.259,0,0,0,14.521,14.521Zm0,2.13C11.677,16.651,6,18.078,6,20.912v2.13H8.923l5.6,2.168,5.569-2.168h2.952v-2.13C23.042,18.078,17.365,16.651,14.521,16.651Z" transform="translate(705.979 733.757)" fill="#141740"/>
    <g id="Ellipse_43" data-name="Ellipse 43" transform="translate(706 731)" fill="none" stroke="#141740" stroke-width="2">
      <circle cx="14.5" cy="14.5" r="14.5" stroke="none"/>
      <circle cx="14.5" cy="14.5" r="13.5" fill="none"/>
    </g>
    <line id="Line_10" data-name="Line 10" x1="14" y2="23" transform="translate(713.5 734.5)" fill="none" stroke="#141740" stroke-width="3"/>
  </g>
</svg>
